<svg width="16" height="16" viewBox="0 0 16 16" fill="none" xmlns="http://www.w3.org/2000/svg">
<mask id="path-1-inside-1_909_103292" fill="white">
<path d="M7.99999 11.2004C8.46665 11.2004 8.93332 11.0204 9.28665 10.6671L13.6333 6.32042C13.8267 6.12708 13.8267 5.80708 13.6333 5.61375C13.44 5.42042 13.12 5.42042 12.9267 5.61375L8.57999 9.96042C8.25999 10.2804 7.73999 10.2804 7.41999 9.96042L3.07332 5.61375C2.87999 5.42042 2.55999 5.42042 2.36665 5.61375C2.17332 5.80708 2.17332 6.12708 2.36665 6.32042L6.71332 10.6671C7.06665 11.0204 7.53332 11.2004 7.99999 11.2004Z"/>
</mask>
<path d="M7.99999 11.2004C8.46665 11.2004 8.93332 11.0204 9.28665 10.6671L13.6333 6.32042C13.8267 6.12708 13.8267 5.80708 13.6333 5.61375C13.44 5.42042 13.12 5.42042 12.9267 5.61375L8.57999 9.96042C8.25999 10.2804 7.73999 10.2804 7.41999 9.96042L3.07332 5.61375C2.87999 5.42042 2.55999 5.42042 2.36665 5.61375C2.17332 5.80708 2.17332 6.12708 2.36665 6.32042L6.71332 10.6671C7.06665 11.0204 7.53332 11.2004 7.99999 11.2004Z" fill="black"/>
<path d="M9.28665 10.6671L9.99376 11.3742L9.28665 10.6671ZM13.6333 6.32042L12.9262 5.61331V5.61331L13.6333 6.32042ZM12.9267 5.61375L13.6338 6.32086L12.9267 5.61375ZM8.57999 9.96042L7.87288 9.25331L8.57999 9.96042ZM7.41999 9.96042L6.71288 10.6675L7.41999 9.96042ZM3.07332 5.61375L3.78043 4.90664V4.90664L3.07332 5.61375ZM2.36665 6.32042L3.07376 5.61331V5.61331L2.36665 6.32042ZM6.71332 10.6671L6.00621 11.3742L6.71332 10.6671ZM7.99999 10.2004C8.21061 10.2004 8.42014 10.1194 8.57955 9.95998L9.99376 11.3742C9.4465 11.9214 8.7227 12.2004 7.99999 12.2004V10.2004ZM8.57955 9.95998L12.9262 5.61331L14.3404 7.02752L9.99376 11.3742L8.57955 9.95998ZM12.9262 5.61331C12.729 5.8105 12.729 6.12367 12.9262 6.32086L14.3404 4.90664C14.9243 5.4905 14.9243 6.44367 14.3404 7.02752L12.9262 5.61331ZM12.9262 6.32086C13.1234 6.51805 13.4366 6.51805 13.6338 6.32086L12.2195 4.90664C12.8034 4.32279 13.7566 4.32279 14.3404 4.90664L12.9262 6.32086ZM13.6338 6.32086L9.28709 10.6675L7.87288 9.25331L12.2195 4.90664L13.6338 6.32086ZM9.28709 10.6675C8.57657 11.378 7.4234 11.378 6.71288 10.6675L8.12709 9.25331C8.05657 9.18279 7.9434 9.18279 7.87288 9.25331L9.28709 10.6675ZM6.71288 10.6675L2.36621 6.32086L3.78043 4.90664L8.12709 9.25331L6.71288 10.6675ZM2.36621 6.32086C2.56341 6.51805 2.87657 6.51805 3.07376 6.32086L1.65955 4.90664C2.2434 4.32279 3.19657 4.32279 3.78043 4.90664L2.36621 6.32086ZM3.07376 6.32086C3.27095 6.12367 3.27095 5.8105 3.07376 5.61331L1.65955 7.02752C1.07569 6.44367 1.07569 5.4905 1.65955 4.90664L3.07376 6.32086ZM3.07376 5.61331L7.42043 9.95998L6.00621 11.3742L1.65955 7.02752L3.07376 5.61331ZM7.42043 9.95998C7.57984 10.1194 7.78936 10.2004 7.99999 10.2004V12.2004C7.27728 12.2004 6.55347 11.9214 6.00621 11.3742L7.42043 9.95998Z" fill="#161616" mask="url(#path-1-inside-1_909_103292)"/>
</svg>
