<svg width="172" height="172" viewBox="0 0 172 172" fill="none" xmlns="http://www.w3.org/2000/svg">
<path d="M135.715 75.5004V71.929C135.715 44.9916 135.715 31.5229 127.347 23.1545C118.979 14.7861 105.51 14.7861 78.5725 14.7861C51.6351 14.7861 38.1665 14.7861 29.798 23.1545C21.4297 31.5229 21.4297 44.9916 21.4297 71.929V114.786C21.4297 128.099 21.4297 134.755 23.6045 140.005C26.5044 147.006 32.0665 152.568 39.0673 155.468C44.3179 157.643 50.9742 157.643 64.2868 157.643" stroke="#1B8354" strokeWidth="3" strokeLinecap="round" strokeLinejoin="round"/>
<path d="M50 50.5005H78.5714H107.143M50 79.0719H78.5714" stroke="#1B8354" strokeWidth="3" strokeLinecap="round"/>
<path d="M109.161 136.246C108.74 129.898 107.986 123.113 104.87 115.441C102.211 108.897 102.952 93.5039 117.858 93.5039C132.763 93.5039 133.332 108.897 130.673 115.441C127.556 123.113 126.976 129.898 126.554 136.246M150.001 157.643H85.7148V148.745C85.7148 145.556 87.6177 142.753 90.3777 141.877L106.483 136.765C107.632 136.4 108.821 136.215 110.016 136.215H125.7C126.895 136.215 128.083 136.4 129.232 136.765L145.338 141.877C148.098 142.753 150.001 145.556 150.001 148.745V157.643Z" stroke="#1B8354" strokeWidth="3" strokeLinecap="round" strokeLinejoin="round"/>
</svg>
