<svg width="21" height="20" viewBox="0 0 21 20" fill="none" xmlns="http://www.w3.org/2000/svg">
<g id="download-square-02">
<path id="Vector" d="M18.4167 10.0026C18.4167 6.27065 18.4167 4.40468 17.2574 3.2453C16.098 2.08594 14.232 2.08594 10.5001 2.08594C6.76816 2.08594 4.90216 2.08594 3.74275 3.2453C2.58341 4.40468 2.58341 6.27065 2.58341 10.0026C2.58341 13.7345 2.58341 15.6005 3.74275 16.7599C4.90216 17.9193 6.76816 17.9193 10.5001 17.9193C14.232 17.9193 16.098 17.9193 17.2574 16.7599C18.4167 15.6005 18.4167 13.7345 18.4167 10.0026Z" stroke="#9DA4AE" strokeWidth="1.5"/>
<path id="Vector_2" d="M10.4979 5.86719V11.7425M10.4979 11.7425C10.2262 11.7461 9.95809 11.5593 9.76034 11.3314L8.43575 9.8458M10.4979 11.7425C10.7601 11.739 11.0256 11.5532 11.2355 11.3313L12.5678 9.8458M13.8447 14.2005H7.17808" stroke="#9DA4AE" strokeWidth="1.5" strokeLinecap="round"/>
</g>
</svg>
