<svg width="40" height="40" viewBox="0 0 40 40" fill="none" xmlns="http://www.w3.org/2000/svg">
<path d="M0 20C0 8.95431 8.95431 0 20 0V0C31.0457 0 40 8.95431 40 20V20C40 31.0457 31.0457 40 20 40V40C8.95431 40 0 31.0457 0 20V20Z" fill="#FEF3F2"/>
<path d="M19.9993 16.4582C19.4241 16.4582 18.9577 16.9245 18.9577 17.4998C18.9577 17.845 18.6779 18.1248 18.3327 18.1248C17.9875 18.1248 17.7077 17.845 17.7077 17.4998C17.7077 16.2342 18.7337 15.2082 19.9993 15.2082C21.265 15.2082 22.291 16.2342 22.291 17.4998C22.291 17.9551 22.1576 18.3811 21.9275 18.7387C21.7834 18.9626 21.615 19.1765 21.4596 19.3695L21.3758 19.4734C21.2469 19.6329 21.1286 19.7794 21.0192 19.9296C20.7496 20.3002 20.6243 20.5788 20.6243 20.8332V21.2498C20.6243 21.595 20.3445 21.8748 19.9993 21.8748C19.6542 21.8748 19.3743 21.595 19.3743 21.2498V20.8332C19.3743 20.1671 19.7014 19.6163 20.0085 19.1942C20.1382 19.0159 20.2804 18.84 20.4097 18.68L20.4857 18.5859C20.64 18.3941 20.7714 18.2254 20.8764 18.0623C20.9805 17.9004 21.041 17.7081 21.041 17.4998C21.041 16.9245 20.5746 16.4582 19.9993 16.4582Z" fill="#B42318"/>
<path d="M19.9928 23.3332C19.5326 23.3332 19.1595 23.7063 19.1595 24.1665C19.1595 24.6267 19.5326 24.9998 19.9928 24.9998H20.0003C20.4606 24.9998 20.8337 24.6267 20.8337 24.1665C20.8337 23.7063 20.4606 23.3332 20.0003 23.3332H19.9928Z" fill="#B42318"/>
<path fill-rule="evenodd" clipRule="evenodd" d="M11.041 19.9998C11.041 15.0523 15.0518 11.0415 19.9993 11.0415C24.9469 11.0415 28.9577 15.0523 28.9577 19.9998C28.9577 24.9474 24.9469 28.9582 19.9993 28.9582C15.0518 28.9582 11.041 24.9474 11.041 19.9998ZM19.9993 12.2915C15.7422 12.2915 12.291 15.7426 12.291 19.9998C12.291 24.257 15.7422 27.7082 19.9993 27.7082C24.2565 27.7082 27.7077 24.257 27.7077 19.9998C27.7077 15.7426 24.2565 12.2915 19.9993 12.2915Z" fill="#B42318"/>
</svg>
