<svg width="32" height="32" viewBox="0 0 32 32" fill="none" xmlns="http://www.w3.org/2000/svg">
<path d="M29.334 11.4255C29.334 9.8306 28.6908 8.85317 27.3598 8.11245L21.8808 5.06333C19.0099 3.46561 17.5744 2.66675 16.0007 2.66675C14.4269 2.66675 12.9915 3.46561 10.1205 5.06333L4.64145 8.11245C3.31052 8.85317 2.66732 9.83061 2.66732 11.4255C2.66732 11.858 2.66732 12.0742 2.71452 12.252C2.96265 13.186 3.80905 13.3334 4.62638 13.3334H27.3749C28.1923 13.3334 29.0386 13.186 29.2868 12.252C29.334 12.0742 29.334 11.858 29.334 11.4255Z" stroke="#161616" strokeWidth="1.5"/>
<path d="M16.0059 9.33325H15.9939" stroke="#161616" strokeWidth="2" strokeLinecap="round" strokeLinejoin="round"/>
<path d="M26.666 13.3333V24.6666M21.3327 13.3333V24.6666" stroke="#161616" strokeWidth="1.5"/>
<path d="M10.666 13.3333V24.6666M5.33268 13.3333V24.6666" stroke="#161616" strokeWidth="1.5"/>
<path d="M6.66732 24.6667H25.334C27.5431 24.6667 29.334 26.4575 29.334 28.6667C29.334 29.0349 29.0355 29.3334 28.6673 29.3334H3.33399C2.96585 29.3334 2.66732 29.0349 2.66732 28.6667C2.66732 26.4575 4.45812 24.6667 6.66732 24.6667Z" stroke="#161616" strokeWidth="1.5"/>
</svg>
