<svg width="8" height="12" viewBox="0 0 8 12" fill="none" xmlns="http://www.w3.org/2000/svg">
<g id="elements">
<path id="Icon" d="M6.86865 10.4963C6.73417 10.3947 6.33272 10.0915 6.10129 9.91087C5.63778 9.54914 5.02187 9.05489 4.4078 8.52171C3.79061 7.98585 3.18954 7.42292 2.74767 6.92283C2.5261 6.67207 2.35774 6.45179 2.24816 6.27001C2.1451 6.09905 2.12367 5.99806 2.12367 5.99806C2.12367 5.99806 2.1451 5.90004 2.24816 5.72909C2.35774 5.54732 2.5261 5.32704 2.74766 5.07628C3.18954 4.57619 3.79062 4.01326 4.40781 3.47739C5.02189 2.94422 5.6378 2.44996 6.10132 2.08823C6.33275 1.90763 6.73363 1.60479 6.86811 1.50322C7.14605 1.29853 7.206 0.906857 7.0013 0.628922C6.79661 0.350986 6.40536 0.291612 6.12742 0.496306L6.12531 0.497904C5.98426 0.604438 5.56842 0.918521 5.33229 1.1028C4.8583 1.4727 4.22421 1.98139 3.5883 2.53352C2.95548 3.08295 2.30656 3.68767 1.81094 4.24861C1.56375 4.52836 1.34149 4.81193 1.17764 5.08374C1.02412 5.33838 0.873052 5.6608 0.873055 5.99956C0.873058 6.33831 1.02413 6.66072 1.17764 6.91537C1.3415 7.18717 1.56376 7.47075 1.81094 7.7505C2.30656 8.31143 2.95548 8.91615 3.58828 9.46559C4.22419 10.0177 4.85827 10.5264 5.33225 10.8963C5.56855 11.0807 5.98441 11.3948 6.12516 11.5011L6.12698 11.5025C6.40492 11.7072 6.79656 11.6481 7.00126 11.3702C7.20595 11.0923 7.14656 10.701 6.86865 10.4963Z" fill="#161616"/>
</g>
</svg>
