<svg width="199" height="54" viewBox="0 0 199 54" fill="none" xmlns="http://www.w3.org/2000/svg">
<g clip-path="url(#clip0_1_14134)">
<path d="M77.3441 15.3247H78.7068V18.8604H82.8694V15.3247H84.2271V23.8846H82.8694V20.1264H78.7068V23.8846H77.3441V15.3247Z" fill="#269798"/>
<path d="M91.3687 24.033C90.3591 24.2159 89.2302 24.3445 88.6036 24.3445C86.9027 24.3445 85.8832 23.672 85.8832 22.0352V18.1632H87.2608C87.2608 19.3846 87.2707 20.5467 87.2707 21.7681C87.2707 22.7324 87.778 22.9994 88.6682 22.9994C89.0362 22.9994 89.5087 22.9549 89.9811 22.8709V18.1681H91.3687V24.0379V24.033Z" fill="#269798"/>
<path d="M102.041 20.2995V24.2011H100.654C100.654 22.9797 100.644 21.7731 100.644 20.5566C100.644 19.8099 100.385 19.3253 99.3856 19.3253C99.0425 19.3253 98.5799 19.4539 98.2467 19.6566C98.2915 19.8791 98.3213 20.1264 98.3213 20.3934V24.2011H96.9338V20.5566C96.9338 19.6566 96.4265 19.3253 95.6457 19.3253C95.3225 19.3253 94.9445 19.3797 94.5516 19.4637V24.2011H93.1641V18.2868C94.1985 18.094 95.1832 17.9852 95.7104 17.9852C96.4315 17.9852 97.0681 18.1335 97.5405 18.4995C98.0776 18.1879 98.7441 17.9852 99.4552 17.9852C101.027 17.9852 102.046 18.628 102.046 20.2945" fill="#269798"/>
<path d="M108.87 20.3093V23.9242C108.203 24.1071 107.139 24.3099 106.184 24.3099C104.324 24.3099 103.305 23.5928 103.305 22.2577V22.2478C103.305 20.9522 104.274 20.25 106.045 20.25C106.478 20.25 106.98 20.2945 107.507 20.3588V20.3242C107.507 19.5972 106.95 19.172 105.841 19.172C105.269 19.172 104.433 19.2907 103.767 19.5676L104.09 18.3066C104.563 18.1038 105.378 17.9654 106.154 17.9654C107.756 17.9654 108.875 18.6626 108.875 20.3192M106.199 23.0885C106.567 23.0885 107.179 23.0341 107.512 22.95V21.5159C107.273 21.4714 106.642 21.3972 106.199 21.3972C105.179 21.3972 104.702 21.6643 104.702 22.233C104.702 22.8016 105.175 23.0885 106.199 23.0885Z" fill="#269798"/>
<path d="M110.58 18.2918C111.58 18.1187 112.719 17.9901 113.336 17.9901C114.818 17.9901 116.056 18.5143 116.056 20.2896C116.056 21.5951 116.066 22.8956 116.066 24.2011H114.678V20.5566C114.678 19.6467 114.161 19.3253 113.271 19.3253C112.918 19.3253 112.43 19.3698 111.958 19.4538V24.2011H110.58V18.2918Z" fill="#269798"/>
<path d="M122.889 20.7049H121.288V24.2011H119.91V15.5324H123.277C125.46 15.5324 126.366 16.5808 126.366 18.0544V18.0643C126.366 19.3253 125.654 20.2896 124.312 20.5961L126.589 24.2011H125.073L122.889 20.7049ZM121.288 19.5082H123.387C124.376 19.5082 124.988 19.0038 124.988 18.1187V18.1088C124.988 17.2335 124.366 16.8033 123.387 16.8033H121.288V19.5082Z" fill="#269798"/>
<path d="M133.134 21.6346H128.469C128.653 22.5742 129.32 23.1231 130.359 23.1231C131.09 23.1231 131.776 22.9401 132.239 22.6731L132.821 23.7412C132.189 24.0725 131.339 24.3297 130.26 24.3297C128.325 24.3297 127.047 23.0489 127.047 21.145V21.1352C127.047 19.2214 128.305 17.9406 130.185 17.9406C131.96 17.9406 133.129 19.1571 133.129 20.9868V21.6395L133.134 21.6346ZM128.479 20.4676H131.791C131.707 19.6467 131.09 19.1423 130.155 19.1423C129.22 19.1423 128.648 19.6319 128.479 20.4676Z" fill="#269798"/>
<path d="M133.696 23.8154L134.059 22.7374C134.77 23.039 135.501 23.1775 136.123 23.1775C136.973 23.1775 137.54 23.0489 137.54 22.5346C137.54 22.0747 137.337 21.9808 136.312 21.7137C136.128 21.6692 135.949 21.6198 135.765 21.5753C134.442 21.244 133.85 20.6555 133.85 19.6714C133.85 18.6033 134.755 17.9505 136.267 17.9505C137.182 17.9505 138.063 18.1335 138.674 18.4648L138.286 19.5429C137.714 19.2758 137.048 19.1126 136.426 19.1126C135.705 19.1126 135.278 19.2511 135.278 19.6665C135.278 20.1066 135.631 20.2005 136.461 20.4132L136.904 20.5319C138.311 20.8929 138.893 21.4962 138.893 22.4555C138.893 23.6967 138.013 24.3396 136.247 24.3396C135.332 24.3396 134.507 24.1813 133.686 23.8154" fill="#269798"/>
<path d="M139.575 21.1648V21.1549C139.575 19.3055 141.002 17.9357 142.877 17.9357H142.887C144.792 17.9456 146.209 19.3055 146.209 21.1549V21.1648C146.209 23.0044 144.792 24.3297 142.887 24.3395H142.877C141.007 24.3395 139.585 23.0044 139.575 21.1648ZM142.897 23.0687C144.046 23.0687 144.821 22.2231 144.821 21.1648V21.1549C144.821 20.0769 144.046 19.2313 142.897 19.2214H142.887C141.748 19.2214 140.972 20.0769 140.972 21.1549V21.1648C140.972 22.2231 141.748 23.0687 142.887 23.0687H142.897Z" fill="#269798"/>
<path d="M152.938 24.033C151.928 24.2159 150.799 24.3445 150.173 24.3445C148.472 24.3445 147.452 23.672 147.452 22.0352V18.1632H148.83C148.83 19.3846 148.84 20.5467 148.84 21.7681C148.84 22.7324 149.347 22.9994 150.237 22.9994C150.6 22.9994 151.078 22.9549 151.55 22.8709V18.1681H152.938V24.0379V24.033Z" fill="#269798"/>
<path d="M154.639 18.45C155.499 18.2126 156.404 18.1632 157.026 18.1632H158.135V19.4341H157.2C156.896 19.4341 156.23 19.4538 156.016 19.5626V24.2011H154.639V18.45Z" fill="#269798"/>
<path d="M158.831 21.1352V21.1253C158.851 19.2214 160.154 17.9505 162.089 17.9505C162.84 17.9505 163.571 18.0989 164.162 18.3907L163.625 19.5577C163.153 19.3352 162.67 19.2264 162.098 19.2264C160.96 19.2264 160.238 19.9632 160.229 21.1302V21.15C160.238 22.317 160.96 23.0538 162.113 23.0538C162.695 23.0538 163.232 22.9451 163.64 22.7225L164.177 23.8896C163.576 24.1764 162.844 24.3396 162.079 24.3396C160.089 24.3396 158.841 23.1082 158.831 21.1451" fill="#269798"/>
<path d="M170.767 21.6346H166.102C166.286 22.5742 166.952 23.1231 167.992 23.1231C168.723 23.1231 169.409 22.9401 169.872 22.6731L170.454 23.7412C169.822 24.0725 168.971 24.3297 167.892 24.3297C165.958 24.3297 164.68 23.0489 164.68 21.145V21.1352C164.68 19.2214 165.938 17.9406 167.818 17.9406C169.593 17.9406 170.762 19.1571 170.762 20.9868V21.6395L170.767 21.6346ZM166.112 20.4676H169.424C169.34 19.6467 168.723 19.1423 167.788 19.1423C166.853 19.1423 166.281 19.6319 166.112 20.4676Z" fill="#269798"/>
<path d="M171.324 23.8154L171.687 22.7374C172.398 23.039 173.129 23.1775 173.751 23.1775C174.601 23.1775 175.168 23.0489 175.168 22.5346C175.168 22.0747 174.964 21.9808 173.94 21.7137C173.756 21.6692 173.577 21.6198 173.393 21.5753C172.07 21.244 171.478 20.6555 171.478 19.6714C171.478 18.6033 172.383 17.9505 173.895 17.9505C174.81 17.9505 175.69 18.1335 176.302 18.4648L175.914 19.5429C175.342 19.2758 174.676 19.1126 174.054 19.1126C173.333 19.1126 172.905 19.2511 172.905 19.6665C172.905 20.1066 173.258 20.2005 174.089 20.4132L174.532 20.5319C175.939 20.8929 176.521 21.4962 176.521 22.4555C176.521 23.6967 175.641 24.3396 173.875 24.3396C172.96 24.3396 172.134 24.1813 171.314 23.8154" fill="#269798"/>
<path d="M184.677 20.3093V23.9242C184.011 24.1071 182.946 24.3099 181.991 24.3099C180.131 24.3099 179.112 23.5928 179.112 22.2577V22.2478C179.112 20.9522 180.082 20.25 181.852 20.25C182.28 20.25 182.787 20.2945 183.314 20.3588V20.3242C183.314 19.5972 182.757 19.172 181.648 19.172C181.076 19.172 180.241 19.2907 179.574 19.5676L179.898 18.3066C180.37 18.1038 181.186 17.9654 181.962 17.9654C183.563 17.9654 184.682 18.6626 184.682 20.3192M182.006 23.0885C182.374 23.0885 182.986 23.0341 183.319 22.95V21.5159C183.081 21.4714 182.449 21.3972 182.006 21.3972C180.987 21.3972 180.509 21.6643 180.509 22.233C180.509 22.8016 180.982 23.0885 182.006 23.0885Z" fill="#269798"/>
<path d="M186.388 18.2917C187.387 18.1187 188.526 17.9901 189.143 17.9901C190.625 17.9901 191.863 18.5143 191.863 20.2895C191.863 21.595 191.873 22.8956 191.873 24.2011H190.486V20.5566C190.486 19.6467 189.969 19.3253 189.078 19.3253C188.725 19.3253 188.238 19.3698 187.765 19.4538V24.2011H186.388V18.2917Z" fill="#269798"/>
<path d="M199 15.5324V23.9885C198.259 24.2258 197.314 24.4038 196.518 24.4038C194.41 24.4038 193.141 23.1874 193.141 21.2093V21.1994C193.141 19.1918 194.474 18.0247 196.518 18.0247C196.861 18.0247 197.23 18.0544 197.612 18.1088V15.5324H199ZM197.612 23.0687V19.4143C197.185 19.3154 196.817 19.2758 196.474 19.2758C195.185 19.2758 194.474 20.067 194.474 21.1994V21.2192C194.474 22.4159 195.25 23.1626 196.484 23.1626C196.807 23.1626 197.234 23.1429 197.612 23.0687Z" fill="#269798"/>
<path d="M77.3441 38.1066L77.8812 36.9643C78.5377 37.4143 79.4428 37.6813 80.3529 37.6813C81.6012 37.6813 82.2975 37.1769 82.2975 36.4104V36.3907C82.2975 35.7379 81.825 35.4066 80.5668 35.0357L79.8158 34.8132C78.2691 34.3632 77.5878 33.6165 77.5878 32.3209V32.3011C77.5878 30.9115 78.7167 29.9819 80.5966 29.9819C81.6708 29.9819 82.75 30.2489 83.4911 30.7286L82.9639 31.8709C82.3174 31.4456 81.457 31.1984 80.6115 31.1984C79.4926 31.1984 78.9654 31.6484 78.9654 32.2665V32.2863C78.9654 33.033 79.418 33.3 80.3181 33.5918C80.5568 33.6659 80.8652 33.75 81.1039 33.8143C82.944 34.3286 83.685 35.0951 83.685 36.3709V36.3907C83.685 37.9731 82.4268 38.9126 80.4076 38.9126C79.2489 38.9126 78.115 38.6258 77.3441 38.1115" fill="#269798"/>
<path d="M84.7443 35.7478V35.7379C84.7443 33.8885 86.1716 32.5187 88.0465 32.5187H88.0565C89.9612 32.5286 91.3786 33.8885 91.3786 35.7379V35.7478C91.3786 37.5874 89.9612 38.9126 88.0565 38.9225H88.0465C86.1766 38.9225 84.7542 37.5874 84.7443 35.7478ZM88.0664 37.6517C89.2152 37.6517 89.9911 36.8061 89.9911 35.7478V35.7379C89.9911 34.6599 89.2152 33.8143 88.0664 33.8044H88.0565C86.9176 33.8044 86.1418 34.6599 86.1418 35.7379V35.7478C86.1418 36.8061 86.9176 37.6517 88.0565 37.6517H88.0664Z" fill="#269798"/>
<path d="M92.1395 35.7132V35.7033C92.1594 33.7995 93.4624 32.5286 95.397 32.5286C96.1479 32.5286 96.879 32.6769 97.4708 32.9687L96.9337 34.1357C96.4613 33.9132 95.9789 33.8044 95.4069 33.8044C94.2681 33.8044 93.5469 34.5412 93.537 35.7083V35.728C93.5469 36.8951 94.2681 37.6319 95.4169 37.6319C95.9987 37.6319 96.5359 37.5231 96.9437 37.3006L97.4808 38.4676C96.879 38.7544 96.1479 38.9176 95.3821 38.9176C93.3928 38.9176 92.1445 37.6863 92.1345 35.7231" fill="#269798"/>
<path d="M98.4507 31.1489C98.4507 30.689 98.8286 30.3874 99.3111 30.3874C99.7935 30.3874 100.152 30.689 100.152 31.1489C100.152 31.6632 99.7537 31.9302 99.3111 31.9302C98.8684 31.9302 98.4507 31.6632 98.4507 31.1489ZM98.6098 32.7412H99.9974V38.7841H98.6098V32.7412Z" fill="#269798"/>
<path d="M106.826 34.8923V38.5071C106.159 38.6901 105.095 38.8929 104.14 38.8929C102.28 38.8929 101.26 38.1758 101.26 36.8407V36.8308C101.26 35.5352 102.23 34.833 104.001 34.833C104.433 34.833 104.936 34.8775 105.463 34.9418V34.9071C105.463 34.1802 104.906 33.7549 103.797 33.7549C103.225 33.7549 102.389 33.8736 101.723 34.1506L102.046 32.8896C102.519 32.6868 103.334 32.5484 104.11 32.5484C105.712 32.5484 106.831 33.2456 106.831 34.9022M104.155 37.6714C104.523 37.6714 105.135 37.617 105.468 37.533V36.0989C105.229 36.0544 104.598 35.9802 104.155 35.9802C103.135 35.9802 102.658 36.2473 102.658 36.8159C102.658 37.3846 103.13 37.6714 104.155 37.6714Z" fill="#269798"/>
<path d="M109.924 30.1104H108.536V38.7791H109.924V30.1104Z" fill="#269798"/>
<path d="M121.139 34.3978V34.4077C121.129 37.0929 119.279 38.7791 116.334 38.7791H113.773V30.1104H116.334C119.289 30.1104 121.139 31.7571 121.139 34.3978ZM119.642 34.3978C119.642 32.4841 118.503 31.3912 116.513 31.3912H115.146V37.4984H116.513C118.503 37.4984 119.632 36.3758 119.642 34.4077V34.3978Z" fill="#269798"/>
<path d="M127.997 36.2176H123.332C123.516 37.1572 124.182 37.7061 125.222 37.7061C125.953 37.7061 126.639 37.5231 127.102 37.2561L127.683 38.3242C127.052 38.6555 126.201 38.9127 125.122 38.9127C123.188 38.9127 121.91 37.6319 121.91 35.728V35.7181C121.91 33.8044 123.168 32.5236 125.048 32.5236C126.823 32.5236 127.992 33.7401 127.992 35.5698V36.2225L127.997 36.2176ZM123.342 35.0506H126.654C126.569 34.2297 125.953 33.7253 125.018 33.7253C124.083 33.7253 123.511 34.2148 123.342 35.0506Z" fill="#269798"/>
<path d="M134.532 32.7412L132.468 38.7841H130.662L128.554 32.7412H130.016L131.563 37.533L133.079 32.7412H134.532Z" fill="#269798"/>
<path d="M141.166 36.2176H136.501C136.685 37.1572 137.351 37.7061 138.391 37.7061C139.122 37.7061 139.808 37.5231 140.271 37.2561L140.853 38.3242C140.221 38.6555 139.371 38.9127 138.291 38.9127C136.357 38.9127 135.079 37.6319 135.079 35.728V35.7181C135.079 33.8044 136.337 32.5236 138.217 32.5236C139.992 32.5236 141.161 33.7401 141.161 35.5698V36.2225L141.166 36.2176ZM136.511 35.0506H139.823C139.739 34.2297 139.122 33.7253 138.187 33.7253C137.252 33.7253 136.68 34.2148 136.511 35.0506Z" fill="#269798"/>
<path d="M143.812 30.1104H142.424V38.7791H143.812V30.1104Z" fill="#269798"/>
<path d="M145.045 35.7478V35.7379C145.045 33.8885 146.472 32.5187 148.347 32.5187H148.357C150.262 32.5286 151.679 33.8885 151.679 35.7379V35.7478C151.679 37.5874 150.262 38.9126 148.357 38.9225H148.347C146.477 38.9225 145.055 37.5874 145.045 35.7478ZM148.367 37.6517C149.516 37.6517 150.292 36.8061 150.292 35.7478V35.7379C150.292 34.6599 149.516 33.8143 148.367 33.8044H148.357C147.218 33.8044 146.443 34.6599 146.443 35.7379V35.7478C146.443 36.8061 147.218 37.6517 148.357 37.6517H148.367Z" fill="#269798"/>
<path d="M158.737 35.7775V35.7874C158.737 37.7654 157.468 38.9868 155.36 38.9868C155.017 38.9868 154.639 38.9522 154.261 38.8879V41.1429H152.873V32.9093H153.142C153.883 32.7066 154.678 32.5978 155.355 32.5978C157.399 32.5978 158.732 33.7648 158.732 35.7725M157.399 35.7725C157.399 34.6401 156.688 33.8489 155.399 33.8489C155.056 33.8489 154.688 33.8934 154.261 33.9874V37.6467C154.639 37.7209 155.066 37.7407 155.39 37.7407C156.628 37.7407 157.399 36.994 157.399 35.7923V35.7725Z" fill="#269798"/>
<path d="M168.842 34.8775V38.7791H167.455C167.455 37.5577 167.445 36.3511 167.445 35.1346C167.445 34.3879 167.186 33.9033 166.186 33.9033C165.843 33.9033 165.381 34.0319 165.048 34.2346C165.092 34.4571 165.122 34.7044 165.122 34.9714V38.7791H163.735V35.1346C163.735 34.2346 163.227 33.9033 162.447 33.9033C162.123 33.9033 161.745 33.9577 161.352 34.0418V38.7791H159.965V32.8648C160.999 32.672 161.984 32.5632 162.511 32.5632C163.232 32.5632 163.864 32.7115 164.341 33.0775C164.878 32.7659 165.545 32.5632 166.256 32.5632C167.828 32.5632 168.847 33.206 168.847 34.8725" fill="#269798"/>
<path d="M176.202 36.2176H171.538C171.722 37.1572 172.388 37.7061 173.427 37.7061C174.158 37.7061 174.845 37.5231 175.307 37.2561L175.889 38.3242C175.258 38.6555 174.407 38.9127 173.328 38.9127C171.393 38.9127 170.115 37.6319 170.115 35.728V35.7181C170.115 33.8044 171.373 32.5236 173.253 32.5236C175.029 32.5236 176.198 33.7401 176.198 35.5698V36.2225L176.202 36.2176ZM171.548 35.0506H174.86C174.775 34.2297 174.158 33.7253 173.224 33.7253C172.289 33.7253 171.717 34.2148 171.548 35.0506Z" fill="#269798"/>
<path d="M177.516 32.8698C178.515 32.6967 179.654 32.5681 180.271 32.5681C181.753 32.5681 182.991 33.0923 182.991 34.8676C182.991 36.1731 183.001 37.4736 183.001 38.7791H181.613V35.1346C181.613 34.2247 181.096 33.9033 180.206 33.9033C179.853 33.9033 179.366 33.9478 178.893 34.0319V38.7791H177.516V32.8698Z" fill="#269798"/>
<path d="M185.259 36.8555V33.9775H184.15V32.7363H185.259V30.5555H186.626V32.7363H188.929V33.9775H186.626V36.4451C186.626 37.2709 187.024 37.5132 187.83 37.5132H188.939V38.7742H187.338C185.776 38.7742 185.264 38.156 185.264 36.8505" fill="#269798"/>
<path d="M25.5029 13.9549C25.7814 13.9945 26.0599 14.044 26.3335 14.0934C27.6265 11.7346 29.0936 9.53901 30.7547 7.50165C26.7264 4.36154 22.1112 1.84451 16.7301 0L25.498 13.9549H25.5029ZM48.1362 31.6632L33.6989 27L50.6676 54C51.6673 45.8802 50.7024 38.5615 48.1412 31.6681" fill="#269798"/>
<path d="M24.4635 21.2637C30.7199 11.3093 38.876 4.04011 50.6627 0L33.6939 27L16.7251 54C15.2083 41.6918 18.2022 31.2181 24.4585 21.2637" fill="#F7941D"/>
<path d="M0 16.111L18.048 21.9412C19.9378 20.8978 21.9072 19.9533 23.9413 19.0879C24.2049 18.45 24.4784 17.817 24.7668 17.1841C25.2542 16.1209 25.7814 15.0923 26.3334 14.0885C17.6203 12.6989 8.96679 13.1835 0 16.111ZM49.3497 21.9412L33.6988 27L67.3976 37.889C62.3597 30.9511 56.3421 25.8033 49.3497 21.9462" fill="#2BB574"/>
<path d="M0 37.8841L19.2614 31.6632C19.9527 29.8039 20.7634 27.9791 21.6784 26.1742C22.2305 23.7808 22.9864 21.422 23.9413 19.0879C14.3926 23.1478 6.40058 29.072 0 37.8841ZM41.8947 13.955L33.6988 27L67.3976 16.111C58.7143 13.2775 50.3294 12.7236 41.8947 13.955Z" fill="#FCB614"/>
</g>
<defs>
<clipPath id="clip0_1_14134">
<rect width="199" height="54" fill="white"/>
</clipPath>
</defs>
</svg>
