<svg width="8" height="12" viewBox="0 0 8 12" fill="none" xmlns="http://www.w3.org/2000/svg">
<g id="elements">
<path id="Icon" d="M1.12941 1.5031C1.26388 1.60467 1.66534 1.90793 1.89676 2.08853C2.36027 2.45026 2.97618 2.94452 3.59026 3.47769C4.20744 4.01356 4.80852 4.57648 5.25039 5.07658C5.47195 5.32734 5.64031 5.54762 5.74989 5.72939C5.85296 5.90035 5.87439 6.00134 5.87439 6.00134C5.87439 6.00134 5.85296 6.09936 5.7499 6.27031C5.64032 6.45209 5.47196 6.67237 5.25039 6.92313C4.80852 7.42322 4.20744 7.98615 3.59025 8.52201C2.97617 9.05518 2.36025 9.54944 1.89673 9.91117C1.66531 10.0918 1.26442 10.3946 1.12994 10.4962C0.852005 10.7009 0.792059 11.0925 0.996753 11.3705C1.20145 11.6484 1.59269 11.7078 1.87063 11.5031L1.87263 11.5016C2.01356 11.3951 2.42957 11.0809 2.66577 10.8966C3.13975 10.5267 3.77384 10.018 4.40976 9.46589C5.04257 8.91646 5.69149 8.31173 6.18712 7.7508C6.4343 7.47105 6.65656 7.18747 6.82042 6.91567C6.97393 6.66102 7.125 6.33861 7.125 5.99985C7.125 5.66109 6.97393 5.33868 6.82041 5.08404C6.65656 4.81223 6.4343 4.52866 6.18712 4.24891C5.69149 3.68798 5.04258 3.08325 4.40977 2.53382C3.77386 1.98169 3.13978 1.473 2.6658 1.1031C2.42947 0.918666 2.01352 0.604494 1.87283 0.498226L1.87107 0.4969C1.59314 0.292204 1.20149 0.351284 0.996794 0.629218C0.792106 0.907144 0.851494 1.2984 1.12941 1.5031Z" fill="#161616"/>
</g>
</svg>
